<?xml version="1.0" encoding="utf-8"?>
<!-- Generator: Adobe Illustrator 25.4.1, SVG Export Plug-In . SVG Version: 6.00 Build 0)  -->
<svg version="1.1" id="Layer_1" xmlns="http://www.w3.org/2000/svg" xmlns:xlink="http://www.w3.org/1999/xlink" x="0px" y="0px"
	 viewBox="0 0 127 129" style="enable-background:new 0 0 127 129;" xml:space="preserve">
<style type="text/css">
	.st0{fill:#F8F8F8;}
	.st1{fill:#BEC4D5;}
	.st2{fill:#7B7B7B;}
</style>
<path class="st0" d="M14,26H114c4,0,7.2,2.3,7.2,5.1v72c0,2.8-3.2,5.1-7.2,5.1H14c-4,0-7.2-2.3-7.2-5.1v-72C6.8,28.3,10,26,14,26z"
	/>
<path class="st1" d="M79.1,49.8c0,0,0.8-10.5-9.5-11.7c-8.8-0.8-11.5,6.8-11.5,6.8s-2.7-2.4-6.3-0.4c-3.2,1.9-2.7,5.3-2.7,5.3
	S42,51,42,57.9c0.2,6.8,7.8,6.9,7.8,6.9h12v-7.2H58l6.4-6l6.4,6H67v7.2h10.9c0,0,7.1,0,8.1-6.5C86.5,51.2,79.1,49.8,79.1,49.8z"/>
<path class="st2" d="M41.3,77.2v6.2c0,0.9,0.2,1.5,0.6,1.9c0.4,0.4,1,0.6,1.8,0.6c0.7,0,1.3-0.2,1.8-0.6c0.4-0.4,0.6-1.1,0.6-1.9
	v-6.2h1.3v6.2c0,0.8-0.2,1.5-0.5,2.1c-0.3,0.6-0.8,1-1.3,1.2c-0.6,0.3-1.2,0.4-1.9,0.4c-0.7,0-1.3-0.1-1.9-0.4
	c-0.6-0.3-1-0.7-1.3-1.2c-0.3-0.6-0.5-1.2-0.5-2.1v-6.2H41.3z M50.8,80.7c0.3-0.4,0.6-0.8,1.1-1.1c0.5-0.3,1.1-0.4,1.8-0.4
	c0.7,0,1.3,0.2,1.8,0.5c0.6,0.3,1,0.8,1.3,1.4c0.3,0.6,0.5,1.3,0.5,2.1c0,0.8-0.2,1.5-0.5,2.1c-0.3,0.6-0.8,1.1-1.3,1.4
	c-0.6,0.3-1.2,0.5-1.8,0.5c-0.7,0-1.2-0.1-1.7-0.4c-0.5-0.3-0.9-0.7-1.1-1.1v5.1h-1.3V79.3h1.3V80.7z M56,83.1
	c0-0.6-0.1-1.1-0.4-1.5c-0.2-0.4-0.6-0.8-1-1c-0.4-0.2-0.8-0.3-1.3-0.3c-0.5,0-0.9,0.1-1.3,0.3c-0.4,0.2-0.7,0.6-1,1
	c-0.2,0.4-0.3,0.9-0.3,1.5c0,0.6,0.1,1.1,0.3,1.5c0.2,0.4,0.6,0.8,1,1c0.4,0.2,0.8,0.3,1.3,0.3c0.5,0,0.9-0.1,1.3-0.3
	c0.4-0.2,0.7-0.6,1-1C55.9,84.2,56,83.7,56,83.1z M60.3,76.6V87H59V76.6H60.3z M65.8,87.1c-0.7,0-1.4-0.2-2-0.5
	c-0.6-0.3-1-0.8-1.4-1.4c-0.3-0.6-0.5-1.3-0.5-2.1c0-0.8,0.2-1.5,0.5-2.1c0.3-0.6,0.8-1.1,1.4-1.4c0.6-0.3,1.2-0.5,2-0.5
	c0.7,0,1.4,0.2,2,0.5c0.6,0.3,1,0.8,1.4,1.4c0.3,0.6,0.5,1.3,0.5,2.1c0,0.8-0.2,1.5-0.5,2.1c-0.3,0.6-0.8,1.1-1.4,1.4
	C67.2,87,66.5,87.1,65.8,87.1z M65.8,86c0.5,0,0.9-0.1,1.3-0.3s0.7-0.5,1-1c0.3-0.4,0.4-1,0.4-1.6c0-0.6-0.1-1.1-0.4-1.6
	s-0.6-0.7-1-1c-0.4-0.2-0.8-0.3-1.3-0.3c-0.5,0-0.9,0.1-1.3,0.3c-0.4,0.2-0.7,0.5-0.9,1c-0.2,0.4-0.3,1-0.3,1.6
	c0,0.6,0.1,1.2,0.3,1.6c0.2,0.4,0.5,0.8,0.9,1C64.9,85.9,65.3,86,65.8,86z M70.9,83.1c0-0.8,0.2-1.5,0.5-2.1
	c0.3-0.6,0.8-1.1,1.3-1.4c0.6-0.3,1.2-0.5,1.9-0.5c0.7,0,1.3,0.1,1.8,0.4c0.5,0.3,0.9,0.7,1.1,1.1v-1.4h1.3V87h-1.3v-1.4
	c-0.3,0.4-0.6,0.8-1.1,1.1c-0.5,0.3-1.1,0.4-1.7,0.4c-0.7,0-1.3-0.2-1.8-0.5c-0.6-0.3-1-0.8-1.3-1.4C71.1,84.6,70.9,83.9,70.9,83.1z
	 M77.4,83.2c0-0.6-0.1-1.1-0.3-1.5s-0.6-0.8-1-1c-0.4-0.2-0.8-0.3-1.3-0.3c-0.5,0-0.9,0.1-1.3,0.3c-0.4,0.2-0.7,0.6-0.9,1
	s-0.3,0.9-0.3,1.5c0,0.6,0.1,1.1,0.3,1.5c0.2,0.4,0.5,0.8,0.9,1c0.4,0.2,0.8,0.3,1.3,0.3c0.5,0,0.9-0.1,1.3-0.3c0.4-0.2,0.7-0.6,1-1
	C77.3,84.2,77.4,83.7,77.4,83.2z M80.4,83.1c0-0.8,0.2-1.5,0.5-2.1c0.3-0.6,0.8-1.1,1.3-1.4c0.6-0.3,1.2-0.5,1.9-0.5
	c0.6,0,1.2,0.1,1.7,0.4c0.5,0.3,0.9,0.6,1.2,1.1v-4.1h1.3V87h-1.3v-1.4c-0.3,0.5-0.6,0.8-1.1,1.1c-0.5,0.3-1.1,0.4-1.7,0.4
	c-0.7,0-1.3-0.2-1.9-0.5c-0.6-0.3-1-0.8-1.3-1.4C80.5,84.6,80.4,83.9,80.4,83.1z M86.9,83.2c0-0.6-0.1-1.1-0.3-1.5
	c-0.2-0.4-0.6-0.8-1-1c-0.4-0.2-0.8-0.3-1.3-0.3c-0.5,0-0.9,0.1-1.3,0.3s-0.7,0.6-0.9,1c-0.2,0.4-0.3,0.9-0.3,1.5
	c0,0.6,0.1,1.1,0.3,1.5c0.2,0.4,0.5,0.8,0.9,1c0.4,0.2,0.8,0.3,1.3,0.3c0.5,0,0.9-0.1,1.3-0.3c0.4-0.2,0.7-0.6,1-1
	C86.8,84.2,86.9,83.7,86.9,83.2z"/>
</svg>
